<svg id="Icon_Set" enable-background="new 0 0 256 256" height="512" viewBox="0 0 256 256" width="512" xmlns="http://www.w3.org/2000/svg"><path d="m162.463 83.815c-7.029-7.029-18.426-7.029-25.456 0l-2.357 2.357-2.357-2.357c-7.029-7.029-18.426-7.029-25.456 0-7.029 7.029-7.029 18.426 0 25.456l2.357 2.357 21.92 21.92c1.953 1.953 5.118 1.953 7.071 0l21.92-21.92 2.357-2.357c7.03-7.03 7.03-18.427.001-25.456z" fill="#ff4a73"/><path d="m162.467 109.274-2.36 2.35-21.92 21.92c-1.95 1.96-5.12 1.96-7.07 0l-4.25-4.25 18.24-20.29 2.36-2.62c6.86-7.63 7.03-19.9.48-27.75 5.19-.52 10.55 1.21 14.52 5.18 7.03 7.03 7.03 18.43 0 25.46z" fill="#ea2a6a"/><path d="m124.197 108.173 18.33 21.03-4.34 4.34c-1.95 1.96-5.12 1.96-7.07 0l-21.92-21.92-2.36-2.35c-3.52-3.51-5.27-8.12-5.27-12.73s1.75-9.22 5.27-12.73c3.65-3.65 8.49-5.41 13.27-5.26-2.37 3.64-3.54 7.98-3.54 12.31 0 5.29 1.75 10.58 5.27 14.61z" fill="#f973a3"/><path d="m216.489 27.148c-7.029-7.029-18.426-7.029-25.456 0l-2.357 2.357-2.357-2.357c-7.029-7.029-18.426-7.029-25.456 0-7.029 7.029-7.029 18.426 0 25.456l2.357 2.357 21.92 21.92c1.953 1.953 5.118 1.953 7.071 0l21.92-21.92 2.357-2.357c7.031-7.03 7.031-18.426.001-25.456z" fill="#ff4a73"/><path d="m216.493 52.607-2.36 2.35-21.92 21.92c-1.95 1.96-5.12 1.96-7.07 0l-4.25-4.25 18.24-20.29 2.36-2.62c6.86-7.63 7.03-19.9.48-27.75 5.19-.52 10.55 1.21 14.52 5.18 7.03 7.03 7.03 18.43 0 25.46z" fill="#ea2a6a"/><path d="m178.223 51.507 18.33 21.03-4.34 4.34c-1.95 1.96-5.12 1.96-7.07 0l-21.92-21.92-2.36-2.35c-3.52-3.51-5.27-8.12-5.27-12.73s1.75-9.22 5.27-12.73c3.65-3.65 8.49-5.41 13.27-5.26-2.37 3.64-3.54 7.98-3.54 12.31 0 5.29 1.75 10.58 5.27 14.61z" fill="#f973a3"/><path id="XMLID_60_" d="m57.974 142.104c2.276-.206 4.564-.315 6.852-.315 8.183 0 16.391 1.32 24.283 3.983 3.135 1.053 6.186 2.3 9.14 3.753l47.731 23.351 79.871-43.337c2.409-1.38 5.024-2.034 7.614-2.034 5.302 0 10.459 2.76 13.292 7.687 4.213 7.324 1.683 16.693-5.653 20.894l-78.963 72.342c-.048.036-.097.085-.145.121-7.711 5.883-18.001 7.166-27.08 3.741l-63.819-24.102c-7.082-2.385-14.502-2.905-21.596-1.719-4.14.69-8.171 1.961-11.984 3.789v-63.372c6.596-2.543 13.484-4.141 20.457-4.782z" fill="#ffbb98"/><path d="m7.252 136.859v79.43c0 3.03 2.45 5.48 5.48 5.48h19.3c3.03 0 5.48-2.45 5.48-5.48v-79.43c0-3.02-2.45-5.48-5.48-5.48h-19.3c-3.03 0-5.48 2.46-5.48 5.48z" fill="#ff4a73"/><path d="m7.252 136.859v79.43c0 3.03 2.45 5.48 5.48 5.48h4.3c3.03 0 5.48-2.45 5.48-5.48v-79.43c0-3.02-2.45-5.48-5.48-5.48h-4.3c-3.03 0-5.48 2.46-5.48 5.48z" fill="#f973a3"/><path id="XMLID_59_" d="m57.974 142.104c2.276-.206 4.564-.315 6.852-.315 8.183 0 16.391 1.32 24.283 3.983 3.135 1.053 6.186 2.3 9.14 3.753l47.731 23.351 7.566 3.704c4.951 2.494 7.808 7.505 7.808 12.686 0 2.155-.484 4.346-1.525 6.392-3.535 7.009-12.069 9.83-19.078 6.295l-58.6-28.665s-16.979-7.619-37.808-6.158l-6.827.548v-20.793c6.597-2.542 13.485-4.14 20.458-4.781z" fill="#ffcaa6"/><g fill="#5f266d"><path d="m250.196 133.199c-5.305-9.218-17.128-12.417-26.278-7.176l-78.057 42.35-45.86-22.438c-18.149-8.926-39.161-10.517-58.491-4.628v-4.441c0-5.229-4.253-9.481-9.48-9.481h-19.3c-5.228 0-9.48 4.253-9.48 9.481v79.415c0 5.228 4.253 9.48 9.48 9.48h19.299c5.228 0 9.48-4.253 9.48-9.48v-3.418c9.046-3.673 18.974-4.015 28.23-.909 69.228 26.135 67.346 26.182 75.353 26.182 6.938-.001 13.772-2.189 19.283-6.394.039-.029 76.596-70.353 80.868-73.637 7.619-5.855 9.749-16.562 4.953-24.906zm-216.686 83.082c0 .816-.664 1.48-1.48 1.48h-19.3c-.816 0-1.48-.664-1.48-1.48v-79.415c0-.816.664-1.481 1.48-1.481h19.299c.816 0 1.48.665 1.48 1.481v79.415zm206.858-64.519c-5.287 4.065-77.454 70.597-80.91 73.669-6.458 4.874-15.314 6.066-23.144 3.106-.128-.048-63.821-24.096-63.95-24.141-10.087-3.404-20.839-3.385-30.854-.053v-54.636c18.027-6.173 37.903-4.982 54.968 3.41l55.25 27.031c2.434 1.227 4.244 3.332 5.095 5.931 2.804 8.555-6.156 16.395-14.332 12.274l-59.733-29.219c-1.987-.974-4.381-.149-5.351 1.835-.971 1.984-.149 4.38 1.835 5.351 65.469 32.024 62.179 31.145 67.853 31.145 19.116 0 25.576-25.979 7.587-34.777l73.132-39.679c5.41-3.096 12.339-1.222 15.448 4.178 2.806 4.884 1.563 11.15-2.894 14.575z"/><path d="m128.31 136.365c3.508 3.507 9.218 3.509 12.728-.001l24.277-24.277c4.155-4.155 6.443-9.68 6.443-15.557 0-19.143-23.049-29.245-37.085-16.014-4.097-3.865-9.428-5.985-15.085-5.985-19.452 0-29.423 23.69-15.557 37.556zm-8.721-53.834c3.739 0 7.255 1.456 9.899 4.1l2.357 2.357c1.563 1.564 4.097 1.56 5.657 0l2.357-2.357c5.458-5.456 14.341-5.457 19.799 0 5.459 5.459 5.459 14.341 0 19.8l-24.277 24.276c-.391.391-1.025.39-1.415.001l-24.277-24.277c-8.817-8.818-2.489-23.9 9.9-23.9z"/><path d="m182.309 79.697c3.518 3.519 9.211 3.518 12.729 0l24.277-24.277c8.577-8.577 8.577-22.534 0-31.112-8.423-8.423-22.031-8.574-30.641-.458-4.097-3.865-9.428-5.986-15.085-5.985-12.158 0-22 9.84-22 22 0 5.876 2.289 11.4 6.443 15.556zm-18.62-49.732c2.644-2.645 6.16-4.101 9.899-4.101 6.542 0 9.733 3.934 12.256 6.457 1.563 1.564 4.097 1.56 5.657 0l2.357-2.357c2.644-2.644 6.16-4.1 9.899-4.1 12.378 0 18.725 15.074 9.9 23.899l-24.277 24.277c-.392.392-1.022.392-1.414 0l-24.277-24.277c-5.458-5.458-5.458-14.339 0-19.798z"/><path d="m134.692 121.482c3.466 0 5.315-4.162 2.926-6.727l-1.833-1.968c-1.505-1.616-4.036-1.705-5.653-.2-1.616 1.506-1.706 4.037-.2 5.653 1.762 1.894 2.628 3.242 4.76 3.242z"/><path d="m122.635 108.539c3.466 0 5.315-4.162 2.926-6.727l-6.135-6.585c-1.506-1.616-4.037-1.706-5.653-.2s-1.706 4.037-.2 5.653c6.466 6.942 6.811 7.859 9.062 7.859z"/></g></svg>