<svg id="Capa_1" enable-background="new 0 0 512 512" height="512" viewBox="0 0 512 512" width="512" xmlns="http://www.w3.org/2000/svg"><g><g><path d="m313.428 75.407-57.172 61.325-57.686-61.87c-43.135-46.264-113.067-46.262-156.2.004-43.134 46.267-43.134 121.281 0 167.548l213.885 229.421 213.371-228.876c43.139-46.268 43.139-121.287 0-167.555-43.134-46.264-113.065-46.262-156.198.003z" fill="#ff7c96"/></g><g><circle cx="401.701" cy="248.129" r="10"/><path d="m476.955 68.571c-22.778-24.431-53.117-37.885-85.429-37.884-32.312 0-62.65 13.456-85.427 37.887l-49.844 53.464-50.358-54.01c-22.778-24.43-53.117-37.884-85.429-37.883-32.312 0-62.65 13.456-85.427 37.887-22.596 24.24-35.041 56.418-35.041 90.608s12.445 66.368 35.042 90.607l213.886 229.42c1.895 2.033 4.549 3.187 7.329 3.187 2.779 0 5.433-1.155 7.329-3.187l213.37-228.876c22.598-24.238 35.044-56.417 35.044-90.61 0-34.192-12.446-66.371-35.045-90.61zm-14.658 167.555-206.041 221.015-206.557-221.559c-39.553-42.426-39.553-111.458 0-153.884 18.945-20.32 44.078-31.512 70.77-31.513s51.826 11.189 70.772 31.509l57.686 61.87c1.895 2.033 4.549 3.187 7.328 3.187s5.433-1.155 7.329-3.187l57.172-61.325c18.945-20.321 44.078-31.512 70.77-31.513 26.692 0 51.826 11.19 70.772 31.51 39.558 42.428 39.558 111.463-.001 153.89z"/><path d="m363.612 274.293-91.977 98.661c-3.463 3.715-3.556 9.628-.199 13.442 3.861 4.387 10.869 4.501 14.857.222l91.977-98.661c3.773-4.047 3.551-10.387-.497-14.161-4.049-3.774-10.389-3.551-14.161.497z"/></g></g></svg>