<?xml version="1.0" encoding="iso-8859-1"?>
<!-- Generator: Adobe Illustrator 19.0.0, SVG Export Plug-In . SVG Version: 6.00 Build 0)  -->
<svg version="1.1" id="Layer_1" xmlns="http://www.w3.org/2000/svg" xmlns:xlink="http://www.w3.org/1999/xlink" x="0px" y="0px"
	 viewBox="0 0 512 512" style="enable-background:new 0 0 512 512;" xml:space="preserve">
<path d="M144.773,392C69.238,392,8.002,330.763,8.002,255.228s61.236-136.772,136.772-136.772s136.772,61.236,136.772,136.772
	C281.465,330.731,220.277,391.92,144.773,392z"/>
<path style="fill:#E81241;" d="M144.773,126.458c71.118,0,128.77,57.652,128.77,128.77s-57.652,128.77-128.77,128.77
	s-128.77-57.652-128.77-128.77l0,0C16.083,184.141,73.687,126.538,144.773,126.458 M144.773,110.454
	C64.821,110.454,0,175.276,0,255.228s64.821,144.773,144.773,144.773s144.773-64.821,144.773-144.773l0,0
	C289.547,175.276,224.726,110.454,144.773,110.454z"/>
<polygon style="fill:#D8D6D6;" points="213.979,405.01 310.127,379.853 512,177.98 441.01,106.99 239.137,308.863 "/>
<polyline style="fill:#6B6B6B;" points="227.774,352.28 213.979,405.01 266.71,391.215 "/>
<rect x="431.689" y="131.728" transform="matrix(0.7071 -0.7071 0.7071 0.7071 -0.629 362.3247)" width="10.722" height="100.387"/>
<rect x="238.262" y="206.087" transform="matrix(0.7071 -0.7071 0.7071 0.7071 -74.9779 331.5491)" width="248.928" height="100.387"/>
<rect x="421.847" y="114.923" transform="matrix(0.7071 -0.7071 0.7071 0.7071 16.1754 369.2844)" style="fill:#E21B1B;" width="64.012" height="100.387"/>
<g style="opacity:0.25;">
	<polygon style="fill:#FFFFFF;" points="213.979,405.01 477.833,143.813 441.01,106.998 239.185,308.815 	"/>
</g>
<g>
	<polygon style="fill:#666666;" points="299.869,369.499 297.036,366.674 327.451,336.26 327.451,322.866 391.351,258.973 
		408.307,258.973 410.115,257.164 430.815,257.164 430.815,261.165 411.772,261.165 409.963,262.973 393.008,262.973 
		331.451,324.522 331.451,337.917 	"/>
	<polygon style="fill:#666666;" points="252.971,320.377 250.147,317.544 362.498,205.194 362.498,196.536 377.941,181.101 
		377.941,168.058 381.942,168.058 381.942,182.757 366.498,198.192 366.498,206.85 	"/>
</g>
<g>
</g>
<g>
</g>
<g>
</g>
<g>
</g>
<g>
</g>
<g>
</g>
<g>
</g>
<g>
</g>
<g>
</g>
<g>
</g>
<g>
</g>
<g>
</g>
<g>
</g>
<g>
</g>
<g>
</g>
</svg>
