<?xml version="1.0" encoding="iso-8859-1"?>
<!-- Generator: Adobe Illustrator 19.0.0, SVG Export Plug-In . SVG Version: 6.00 Build 0)  -->
<svg version="1.1" id="Layer_1" xmlns="http://www.w3.org/2000/svg" xmlns:xlink="http://www.w3.org/1999/xlink" x="0px" y="0px"
	 viewBox="0 0 512 512" style="enable-background:new 0 0 512 512;" xml:space="preserve">
<g>
	<path style="fill:#E5D85A;" d="M223.418,93.091c15.4,0,27.927-12.527,27.927-27.927s-12.527-27.927-27.927-27.927
		s-27.927,12.527-27.927,27.927S208.018,93.091,223.418,93.091z"/>
	<path style="fill:#E5D85A;" d="M148.945,437.527c-15.4,0-27.927,12.527-27.927,27.927s12.527,27.927,27.927,27.927
		s27.927-12.527,27.927-27.927S164.345,437.527,148.945,437.527z"/>
	<path style="fill:#E5D85A;" d="M418.909,111.709c25.664,0,46.545-20.882,46.545-46.545s-20.882-46.545-46.545-46.545
		c-25.664,0-46.545,20.882-46.545,46.545S393.246,111.709,418.909,111.709z"/>
	<path style="fill:#E5D85A;" d="M65.164,251.345c-10.268,0-18.618,8.35-18.618,18.618c0,10.264,8.35,18.618,18.618,18.618
		s18.618-8.354,18.618-18.618C83.782,259.695,75.432,251.345,65.164,251.345z"/>
</g>
<path style="fill:#5ECC66;" d="M335.127,176.873c-71.864,0-130.327,58.464-130.327,130.327s58.464,130.327,130.327,130.327
	S465.455,379.064,465.455,307.2S406.991,176.873,335.127,176.873z M428.218,335.127h-65.164v65.164H307.2v-65.164h-65.164v-55.855
	H307.2v-65.164h55.855v65.164h65.164V335.127z"/>
<polygon style="fill:#EBE9D3;" points="344.436,232.727 325.818,232.727 325.818,297.891 260.655,297.891 260.655,316.509 
	325.818,316.509 325.818,381.673 344.436,381.673 344.436,316.509 409.6,316.509 409.6,297.891 344.436,297.891 "/>
<g>
	<path style="fill:#314E55;" d="M335.127,158.255c-82.127,0-148.945,66.818-148.945,148.945S253,456.145,335.127,456.145
		S484.073,389.327,484.073,307.2S417.255,158.255,335.127,158.255z M335.127,437.527c-71.864,0-130.327-58.464-130.327-130.327
		s58.464-130.327,130.327-130.327S465.455,235.336,465.455,307.2S406.991,437.527,335.127,437.527z"/>
	<path style="fill:#314E55;" d="M418.909,130.327c35.932,0,65.164-29.232,65.164-65.164S454.841,0,418.909,0
		s-65.164,29.232-65.164,65.164S382.977,130.327,418.909,130.327z M418.909,18.618c25.664,0,46.545,20.882,46.545,46.545
		s-20.882,46.545-46.545,46.545c-25.664,0-46.545-20.882-46.545-46.545S393.246,18.618,418.909,18.618z"/>
	<path style="fill:#314E55;" d="M223.418,111.709c25.664,0,46.545-20.882,46.545-46.545s-20.882-46.545-46.545-46.545
		S176.873,39.5,176.873,65.164S197.755,111.709,223.418,111.709z M223.418,37.236c15.4,0,27.927,12.527,27.927,27.927
		s-12.527,27.927-27.927,27.927s-27.927-12.527-27.927-27.927S208.018,37.236,223.418,37.236z"/>
	<path style="fill:#314E55;" d="M148.945,418.909c-25.664,0-46.545,20.882-46.545,46.545c0,25.664,20.882,46.545,46.545,46.545
		s46.545-20.882,46.545-46.545C195.491,439.791,174.609,418.909,148.945,418.909z M148.945,493.382
		c-15.4,0-27.927-12.527-27.927-27.927s12.527-27.927,27.927-27.927s27.927,12.527,27.927,27.927S164.345,493.382,148.945,493.382z"
		/>
	<path style="fill:#314E55;" d="M65.164,232.727c-20.532,0-37.236,16.704-37.236,37.236c0,20.536,16.704,37.236,37.236,37.236
		s37.236-16.7,37.236-37.236C102.4,249.432,85.696,232.727,65.164,232.727z M65.164,288.582c-10.268,0-18.618-8.354-18.618-18.618
		c0-10.268,8.35-18.618,18.618-18.618s18.618,8.35,18.618,18.618C83.782,280.227,75.432,288.582,65.164,288.582z"/>
	<path style="fill:#314E55;" d="M363.055,214.109H307.2v65.164h-65.164v55.855H307.2v65.164h55.855v-65.164h65.164v-55.855h-65.164
		V214.109z M409.6,297.891v18.618h-65.164v65.164h-18.618v-65.164h-65.164v-18.618h65.164v-65.164h18.618v65.164H409.6z"/>
</g>
<g>
</g>
<g>
</g>
<g>
</g>
<g>
</g>
<g>
</g>
<g>
</g>
<g>
</g>
<g>
</g>
<g>
</g>
<g>
</g>
<g>
</g>
<g>
</g>
<g>
</g>
<g>
</g>
<g>
</g>
</svg>
