<?xml version="1.0" encoding="UTF-8" standalone="no"?>
<!DOCTYPE svg PUBLIC "-//W3C//DTD SVG 1.1//EN" "http://www.w3.org/Graphics/SVG/1.1/DTD/svg11.dtd">
<svg version="1.1" xmlns="http://www.w3.org/2000/svg" xmlns:xlink="http://www.w3.org/1999/xlink" preserveAspectRatio="xMidYMid meet" viewBox="187.21062247161694 174.4039540649876 108.02655617904213 64.9484536082474" width="108.03" height="64.95"><defs><path d="M252.16 206.88C252.16 224.8 237.61 239.35 219.68 239.35C201.76 239.35 187.21 224.8 187.21 206.88C187.21 188.96 201.76 174.4 219.68 174.4C237.61 174.4 252.16 188.96 252.16 206.88Z" id="bAdqq9Wd8"></path><path d="M273.42 206.88C273.42 224.8 258.87 239.35 240.95 239.35C223.03 239.35 208.47 224.8 208.47 206.88C208.47 188.96 223.03 174.4 240.95 174.4C258.87 174.4 273.42 188.96 273.42 206.88Z" id="b16bvITqSg"></path><path d="M295.24 206.88C295.24 224.8 280.69 239.35 262.76 239.35C244.84 239.35 230.29 224.8 230.29 206.88C230.29 188.96 244.84 174.4 262.76 174.4C280.69 174.4 295.24 188.96 295.24 206.88Z" id="i2i89vwCOF"></path></defs><g><g><g><use xlink:href="#bAdqq9Wd8" opacity="0.95" fill="#276dc2" fill-opacity="1"></use></g><g><use xlink:href="#b16bvITqSg" opacity="0.96" fill="#ffd43b" fill-opacity="1"></use></g><g><use xlink:href="#i2i89vwCOF" opacity="0.95" fill="#9558b2" fill-opacity="1"></use><g><use xlink:href="#i2i89vwCOF" opacity="0.95" fill-opacity="0" stroke="#91f457" stroke-width="0" stroke-opacity="1"></use></g></g></g></g></svg>